<svg width="16" height="16" viewBox="0 0 16 16" fill="none" xmlns="http://www.w3.org/2000/svg">
<g id=" Fill / arrow-left">
<path id="Verctor" fill-rule="evenodd" clip-rule="evenodd" d="M3.33331 8.66669L11.2433 8.66669L8.82131 11.5734C8.58531 11.856 8.62398 12.2767 8.90665 12.512C9.18998 12.748 9.60998 12.7094 9.84531 12.4267L13.1786 8.42669C13.2046 8.39535 13.218 8.35869 13.2373 8.32402C13.2533 8.29602 13.2726 8.27202 13.2846 8.24135C13.3146 8.16469 13.3326 8.08402 13.3326 8.00269C13.3326 8.00202 13.3333 8.00069 13.3333 8.00002C13.3333 7.99935 13.3326 7.99802 13.3326 7.99735C13.3326 7.91602 13.3146 7.83535 13.2846 7.75869C13.2726 7.72802 13.2533 7.70402 13.2373 7.67602C13.218 7.64135 13.2046 7.60469 13.1786 7.57335L9.84531 3.57335C9.71331 3.41535 9.52398 3.33335 9.33331 3.33335C9.18265 3.33335 9.03131 3.38402 8.90665 3.48802C8.62398 3.72335 8.58531 4.14402 8.82131 4.42669L11.2433 7.33335L3.33331 7.33335C2.96531 7.33335 2.66665 7.63202 2.66665 8.00002C2.66665 8.36802 2.96531 8.66669 3.33331 8.66669Z" fill="white"/>
</g>
</svg>